<?xml version="1.0" standalone="no"?>
<!DOCTYPE svg PUBLIC "-//W3C//DTD SVG 20010904//EN"
 "http://www.w3.org/TR/2001/REC-SVG-20010904/DTD/svg10.dtd">
<svg version="1.0" xmlns="http://www.w3.org/2000/svg"
 width="700.000000pt" height="700.000000pt" viewBox="0 0 700.000000 700.000000"
 preserveAspectRatio="xMidYMid meet">
<metadata>
Created by potrace 1.11, written by Peter Selinger 2001-2013
</metadata>
<g transform="translate(0.000000,700.000000) scale(0.100000,-0.100000)"
fill="#000000" stroke="none">
<path d="M1753 5254 c-959 -959 -1743 -1746 -1743 -1749 0 -3 195 -6 432 -7
l433 -3 0 -1455 0 -1455 2625 0 2625 0 0 1458 0 1457 432 0 c238 0 433 2 433
5 0 5 -3488 3496 -3493 3494 -1 0 -786 -786 -1744 -1745z m1087 -999 c181 -34
372 -126 501 -240 47 -41 111 -122 135 -168 21 -43 34 -55 34 -34 0 25 75 130
131 185 177 170 449 274 699 267 117 -3 136 -6 218 -37 259 -96 396 -341 395
-708 0 -125 -2 -142 -32 -235 -49 -149 -143 -327 -259 -490 -35 -49 -171 -225
-182 -235 -3 -3 -18 -21 -34 -40 -131 -161 -492 -524 -702 -707 -87 -76 -149
-130 -158 -138 -6 -6 -28 -23 -48 -39 l-38 -28 -37 28 c-21 16 -45 35 -53 44
-9 8 -30 26 -46 39 -263 217 -731 688 -886 892 -19 26 -40 53 -47 60 -73 87
-207 292 -260 399 -24 47 -47 93 -52 103 -17 32 -60 171 -67 217 -12 82 -6
271 12 355 72 345 295 529 631 520 61 -2 126 -6 145 -10z"/>
<path d="M4959 6668 c0 -24 0 -162 0 -307 l0 -264 432 -433 c238 -238 435
-431 438 -428 6 5 8 1443 3 1462 -3 9 -100 12 -438 12 l-434 0 -1 -42z"/>
</g>
</svg>
